<svg width="36" height="50" fill="none" xmlns="http://www.w3.org/2000/svg"><path d="M28.203 0h-.195c-.33.187-.593.474-.75.819a7.96 7.96 0 00-.664 1.758.841.841 0 01-.762.691 3.786 3.786 0 00-2.689 1.948c-.371.661-.689 1.35-.951 2.062-.73 1.897-1.291 3.855-1.98 5.768-.324.871-.339.871-1.316.871-1.167 0-1.085-.18-1.1 1.108 0 .407.123.613.555.593.134 0 .334-.067.386.108.052.176-.124.253-.226.356a4.628 4.628 0 01-2.228 1.258c-.977.263-1.975.469-2.926.789-2.443.819-4.701 1.964-6.459 3.902a14.451 14.451 0 00-2.438 4.042C2.572 30.526 1.657 35.218.947 39.954a97.36 97.36 0 00-.751 6.701C.103 47.758 0 48.877 0 50h17.141a1.134 1.134 0 00-.118-.66c-.165-.411-.433-.772-.778-1.05s-.755-.46-1.192-.532c-.36-.082-.401-.191-.18-.475a5.328 5.328 0 00.818-1.598c.838-2.479 1.162-5.066 1.568-7.629.229-1.957.83-3.852 1.77-5.582a11.099 11.099 0 012.874-3.283c.427-.325.442-.325.515.227.051.365.062.742.087 1.113a47.94 47.94 0 01-.093 7.309 31.866 31.866 0 00-.076 5.67A38.718 38.718 0 0023.503 50h6.84a2.79 2.79 0 00-2.18-2.289 4.625 4.625 0 00-1.934.104c-.309.072-.438 0-.463-.335a29.14 29.14 0 01.514-8.155 91.372 91.372 0 001.574-9.371 9.163 9.163 0 011.173-3.607c.612-1.093 1.147-2.227 1.749-3.325a3.034 3.034 0 00.215-2.675c-.139-.366-.271-.737-.441-1.087-.515-1.005-1.029-2-1.502-3.016-.252-.516-.195-.577.365-.593.838 0 .838 0 .854-.845v-.34c0-.355-.134-.551-.514-.516h-.782c-.354 0-.458-.149-.37-.515a3.207 3.207 0 012.638-2.283 11.285 11.285 0 013.404.222.511.511 0 00.643-.33c.205-.515.432-1.031.664-1.546a.52.52 0 00-.053-.588c-1.645-2.093-3.43-4.046-5.862-5.299a.78.78 0 01-.3-.231.775.775 0 01-.152-.347A10.212 10.212 0 0028.93.889 1.807 1.807 0 0028.203 0z" fill="currentColor"/></svg>