<svg width="67" height="28" fill="none" xmlns="http://www.w3.org/2000/svg"><path d="M61.55 2.9A7.605 7.605 0 0163.8.6c.5-.35.8-.35 1.101.3.399.95.75 1.95.449 3a1.149 1.149 0 00.2 1.05c.3.4.55.8.8 1.15a3.139 3.139 0 01.451 3.1 2.714 2.714 0 00-.1 1.55c.1.495.1 1.005 0 1.5a1.867 1.867 0 01-1.351 1.6 2.611 2.611 0 00-1.6 1 .514.514 0 01-.192.184.506.506 0 01-.258.066c-.6.101-2.1-1.25-2.1-1.85v-.3c.05-1.8-.05-1.95-1.7-2.7a2.197 2.197 0 01-.9-.6c-.3-.4-.699-.35-1.149-.2-.451.15-.701.45-.651.95.151 1.21.201 2.431.15 3.65a.928.928 0 00.1.4c1.55 2.25 2.15 4.899 2.9 7.45.6 1.949 1.7 3 3.7 3.149.32.026.637.075.949.15.411.065.793.253 1.096.539.303.285.514.654.604 1.061.351 1.05.15 1.3-.899 1.3h-3.25A1.616 1.616 0 0161 27.7a5.84 5.84 0 00-1.7-1 3.636 3.636 0 01-1.7-1.3 14.35 14.35 0 00-2-2.25c-1.4-1.45-2.9-2.85-4.2-4.35a5.692 5.692 0 01-1.601-3.8c0-.45-.1-.65-.6-.45a.963.963 0 01-.5.15c-1.4 0-2.101.85-2.601 2.1-.449 1.05-1.05 2.05-1.6 3.101a5.172 5.172 0 00-.5 2.1c0 1.2.3 1.6 1.4 2 .699.25 1.35.5 1.699 1.2.4.8.301 1-.55 1.05H43.15a.934.934 0 01-.95-.55l-.9-1.5a3.022 3.022 0 01-.349-2.701 5.942 5.942 0 00.05-2.65 4.228 4.228 0 01.031-1.846c.147-.604.427-1.17.818-1.654.301-.35.301-.5-.199-.6a25.003 25.003 0 01-5.9-2.05.047.047 0 01-.035-.015.05.05 0 01-.015-.036c-1.601-.6-1.9-.5-2.35 1.15-.4 1.4-.8 2.8-1.1 4.25-.351 1.601.049 3.101.549 4.601.2.6.8.55 1.25.699 1 .301 1.851.7 2.25 1.75.35.801.3.901-.55.901s-1.7-.05-2.6 0a3.32 3.32 0 01-2.1-.7c-2.4-1.6-3.1-4.05-3.3-6.7-.1-1.649-1-2.949-2.05-4.2-.2-.25-.4-.35-.7-.15a22.087 22.087 0 01-3.35 1.5 13.354 13.354 0 00-6.1 4.4 5.31 5.31 0 00-1.1 2.55c-.15.899.1 1.3 1 1.55s1.35.75 1.45 1.7c.05.399-.1.6-.5.6h-4.05c-.133-.009-.261-.05-.374-.12s-.208-.166-.276-.279a4.281 4.281 0 01-.95-2.75 25.341 25.341 0 01.45-5.15 3.14 3.14 0 011.699-2.4c2.95-1.399 4.5-4.05 5.9-6.8.3-.55.05-.65-.45-.6a8.232 8.232 0 00-3.85 1.6 35.455 35.455 0 00-4.15 3.55 8.341 8.341 0 01-5.15 2.45C1.55 16.25-.15 14.2 0 10.9a4.848 4.848 0 011.2-3.05 2.122 2.122 0 012.25-.75c.75.2.95.6.65 1.35-.15.3-.35.55-.5.85a3.763 3.763 0 00-.5 1c-.55 1.5.2 2.55 1.75 2.7 1.65.15 3-.55 4.25-1.55a22.494 22.494 0 004-4.15 10.4 10.4 0 017.2-4.05c1.15-.15 2.15-.65 3.25-.95 2.058-.627 4.2-.931 6.35-.9a6.484 6.484 0 002.9-.55c2.45-1 5-1 7.55-.5 2 .4 4 .9 5.95 1.4a8.296 8.296 0 003.5-.1 33.916 33.916 0 016.7-1 9.088 9.088 0 014.3.85c1 .45 1 .45.75 1.4z" fill="currentColor"/></svg>