<svg width="13" height="20" fill="none" xmlns="http://www.w3.org/2000/svg"><path fill="#666" d="M7.834 19.36H4.167a.55.55 0 01-.55-.55v-6.642h-2.2a.55.55 0 01-.55-.55V8.024a.55.55 0 01.55-.55h2.2V5.328a5.03 5.03 0 011.508-3.571A5.21 5.21 0 018.75.283h2.75a.55.55 0 01.55.55v3.596a.55.55 0 01-.55.55H8.75a.383.383 0 00-.264.106.336.336 0 00-.102.243v2.146H11.5a.552.552 0 01.534.685l-.916 3.595a.55.55 0 01-.533.414h-2.2v6.642a.551.551 0 01-.551.55zm-3.118-1.099h2.568v-6.642a.55.55 0 01.55-.55h2.322l.636-2.496H7.834a.55.55 0 01-.55-.55V5.328c0-.39.153-.755.433-1.028.276-.271.644-.42 1.033-.42h2.2V1.383h-2.2a4.11 4.11 0 00-2.855 1.159 3.875 3.875 0 00-1.178 2.786v2.696a.55.55 0 01-.55.55h-2.2v2.496h2.2a.55.55 0 01.55.55v6.641z"/></svg>