<svg viewBox="0 0 58 62" xmlns="http://www.w3.org/2000/svg"><path fill="#FFF" d="M54.016 12.924h-7.069a7.788 7.788 0 001.083-2.229 7.72 7.72 0 00-.623-5.953A7.803 7.803 0 0042.732.97a7.858 7.858 0 00-5.989.618c-3.665 1.972-6.265 6.167-7.72 9.094-1.456-2.927-4.055-7.121-7.719-9.094-3.817-2.05-8.601-.635-10.665 3.154-1.459 2.679-1.17 5.834.467 8.182H4.031c-1.754 0-3.181 1.418-3.181 3.161v9.468c0 1.743 1.427 3.16 3.181 3.16h.843v26.35c0 3.357 2.748 6.086 6.125 6.086h36.046c3.377 0 6.123-2.729 6.123-6.086v-26.35h.848c1.754 0 3.18-1.417 3.18-3.16v-9.469c-.001-1.742-1.427-3.16-3.18-3.16zM37.902 3.718a5.426 5.426 0 014.134-.426 5.382 5.382 0 013.226 2.604 5.33 5.33 0 01.431 4.109c-.364 1.214-1.146 2.222-2.193 2.92H30.662c1.148-2.55 3.661-7.281 7.24-9.207zm-25.12 2.177c1.424-2.615 4.726-3.593 7.361-2.177 3.579 1.926 6.093 6.657 7.24 9.206H14.547c-2.295-1.532-3.107-4.565-1.765-7.029zm15.022 22.818V42.51H7.312V28.713h20.492zM7.312 55.063V44.932h20.492v13.795H10.999c-2.033 0-3.687-1.643-3.687-3.664zm39.733 3.664H30.241V44.932H50.73v10.131c0 2.021-1.653 3.664-3.685 3.664zM50.73 42.51H30.241V28.713H50.73V42.51zm4.028-16.957a.742.742 0 01-.742.738H4.031a.743.743 0 01-.744-.738v-9.469c0-.4.34-.739.744-.739h49.985a.75.75 0 01.742.739v9.469z"/></svg>