<svg width="28" height="35" fill="none" xmlns="http://www.w3.org/2000/svg"><path d="M14.156 0h-.104L0 1.437v25.352L14.052 35 28 26.789V1.437L14.156 0zm11.866 12.42l-11.97-6.98v-.103h-.104l-.104-.102v.102L1.978 12.42V3.182l11.97-1.232 12.074 1.232v9.237zM13.948 6.98l11.97 6.876-4.684 2.669-7.39-4.31v1.436l6.141 3.592-.937.514-5.204-3.08v1.437l3.955 2.361-.832.513-3.123-1.847v1.437l1.978 1.129-1.874 1.129-11.866-6.877 11.866-6.98zm-11.97 8.518l11.866 6.98v1.026L5.62 18.68v1.437l8.327 4.927v1.129L5.62 21.349v1.437l8.327 4.927 8.431-5.03v-5.337l3.54-2.053v10.264L13.947 32.64l-11.97-6.98V15.5z" fill="#000"/></svg>