<svg width="24" height="24" viewBox="0 0 24 24" fill="none" xmlns="http://www.w3.org/2000/svg">
<path fill-rule="evenodd" clip-rule="evenodd" d="M2.99981 4.82059e-05C1.30151 -0.00922914 -0.000488281 1.32177 -0.000488281 2.96177L-0.000487671 21.0289C-0.000487671 22.6689 1.30151 23.9999 2.90551 23.9999H20.1395C21.7435 23.9999 23.0445 22.6689 23.0445 21.0289V2.96177C23.0455 1.32177 21.7435 -0.00922914 19.9998 4.82059e-05H2.99981ZM8.00015 12.4994C8.00015 12.4994 8.27834 9.00005 11.4998 9.00005C14.7225 9.00005 14.9995 12.4994 14.9995 12.4994C14.9995 12.4994 15.1019 16 11.4998 16C7.89899 16 8.00015 12.4994 8.00015 12.4994ZM19.9998 19.6802C19.9933 20.4802 19.4166 21 18.6337 21H4.65985C3.94683 21 3.09056 20.4802 2.99981 19.6807V12.437C3.09056 11.6375 3.68401 10.9794 4.46689 10.9794H5.26731C5.32288 10.9794 5.37553 10.9853 5.42525 10.994C5.72358 11.0525 5.91565 11.2739 5.93612 11.5566C5.93904 11.6044 5.93807 11.6531 5.93124 11.7028C5.92637 11.7369 6.00534 11.773 6.00046 11.8062C5.97707 12.0129 6.03654 12.2225 6.03654 12.436C6.03654 15.5997 8.44171 18.1676 11.5225 18.2252C11.4874 18.2261 11.4153 18.231 11.3802 18.231C11.4153 18.231 11.4299 18.2261 11.465 18.2252C11.5001 18.2261 11.5245 18.231 11.5596 18.231C14.6891 18.231 17.221 15.6367 17.222 12.437C17.222 12.2244 17.2015 12.0129 17.1781 11.8071C17.1742 11.772 17.1742 11.736 17.1703 11.7028C17.1635 11.6531 17.1616 11.6044 17.1645 11.5566C17.1849 11.2739 17.377 11.0516 17.6753 10.994C17.7251 10.9853 17.7767 10.9794 17.8323 10.9794H18.6337C19.4166 10.9794 19.9998 11.5566 19.9998 12.44V19.6802ZM19.9989 5.64421C19.9989 6.39238 19.3916 7.00005 18.6435 7.00005H17.3552C16.6062 7.00005 15.9998 6.39238 15.9998 5.64421V4.35498C15.9998 3.6068 16.6062 3.00005 17.3552 3.00005H18.6435C19.3916 3.00005 19.9998 3.6068 19.9998 4.35498V5.64421H19.9989Z" fill="#FEFEFE"/>
</svg>
