<svg width="27" height="22" viewBox="0 0 27 22" fill="none" xmlns="http://www.w3.org/2000/svg">
<path fill-rule="evenodd" clip-rule="evenodd" d="M26.2555 0.406512C25.1845 1.04251 23.9985 1.50451 22.7355 1.75451C21.7255 0.673512 20.2875 -0.000488281 18.6935 -0.000488281C15.6345 -0.000488281 13.1545 2.48751 13.1545 5.55451C13.1545 5.98951 13.2035 6.41351 13.2975 6.81951C8.69449 6.58851 4.61349 4.37651 1.88149 1.01551C1.40449 1.83451 1.13249 2.78851 1.13249 3.80751C1.13249 5.73551 2.11049 7.43551 3.59549 8.43051C2.68749 8.40051 1.83449 8.14951 1.08649 7.73351V7.80251C1.08649 10.4945 2.99649 12.7385 5.52949 13.2505C5.06549 13.3765 4.57649 13.4455 4.07049 13.4455C3.71249 13.4455 3.36649 13.4095 3.02749 13.3445C3.73249 15.5515 5.77749 17.1575 8.20049 17.2035C6.30549 18.6925 3.91649 19.5805 1.32149 19.5805C0.874488 19.5805 0.433488 19.5535 0.000488281 19.5045C2.45249 21.0795 5.36249 21.9995 8.49149 21.9995C18.6795 21.9995 24.2505 13.5355 24.2505 6.19351L24.2325 5.47451C25.3175 4.69451 26.2585 3.71551 27.0005 2.60251C26.0065 3.04351 24.9405 3.34451 23.8195 3.47751C24.9635 2.79051 25.8405 1.70051 26.2555 0.406512Z" fill="#FEFEFE"/>
</svg>
