<svg width="197" height="41" viewBox="0 0 197 41" fill="none" xmlns="http://www.w3.org/2000/svg">
<g filter="url(#filter0_d)">
<path fill-rule="evenodd" clip-rule="evenodd" d="M187.439 5.15151C186.923 5.15151 186.531 5.34551 186.276 5.72951C186.044 6.08151 185.931 6.65851 185.931 7.49451C185.931 8.37851 186.013 8.93351 186.188 9.24051C186.326 9.48351 186.622 9.77351 187.252 9.77351H188.487V26.7195C188.487 27.4235 188.879 28.2635 190.744 28.2635C192.609 28.2635 193 27.4235 193 26.7195V7.11151C193 6.21751 192.576 5.15151 190.557 5.15151H187.439ZM174.591 23.7695H167.337V18.2355H174.279C175.026 18.2355 175.559 18.0805 175.908 17.7605C176.263 17.4365 176.442 16.9045 176.442 16.1805C176.442 15.4615 176.265 14.9215 175.916 14.5755C175.569 14.2345 175.019 14.0615 174.279 14.0615H167.337V9.26151H174.591C175.258 9.26151 175.791 9.10651 176.174 8.79951C176.582 8.47351 176.777 7.92351 176.754 7.16551C176.73 6.42151 176.533 5.88151 176.169 5.55951C175.814 5.24651 175.293 5.08751 174.622 5.08751H164.986C164.249 5.08751 163.702 5.23251 163.314 5.53051C162.906 5.84451 162.699 6.38651 162.699 7.14251V25.8885C162.699 26.6725 162.92 27.2235 163.357 27.5255C163.759 27.8035 164.306 27.9445 164.986 27.9445H174.591C175.454 27.9445 176.062 27.7995 176.45 27.5015C176.858 27.1875 177.066 26.6335 177.066 25.8565C177.066 25.0805 176.858 24.5265 176.45 24.2135C176.062 23.9145 175.454 23.7695 174.591 23.7695ZM157.873 22.3275C157.281 22.0505 156.66 22.1315 156.046 22.5865C155.778 22.7975 155.508 23.0035 155.241 23.2045C154.987 23.3945 154.697 23.5745 154.378 23.7375C154.065 23.8985 153.696 24.0355 153.281 24.1465C152.867 24.2585 152.375 24.3245 151.822 24.3445L151.678 24.3465C150.669 24.3465 149.767 24.1365 149 23.7235C148.19 23.2895 147.503 22.6995 146.96 21.9715C146.413 21.2375 145.994 20.3835 145.713 19.4315C145.432 18.4755 145.29 17.4785 145.29 16.4685C145.29 15.4555 145.418 14.4665 145.669 13.5295C145.919 12.5975 146.293 11.7635 146.78 11.0505C147.263 10.3445 147.872 9.76651 148.592 9.33251C149.302 8.90451 150.128 8.68751 151.047 8.68751C151.876 8.68751 152.576 8.81251 153.128 9.06151C153.705 9.32051 154.211 9.59151 154.632 9.86951C155.074 10.1605 155.48 10.4065 155.837 10.6005C156.268 10.8345 156.752 10.8405 157.166 10.6495C157.427 10.5525 157.657 10.4155 157.85 10.2425C158.041 10.0715 158.173 9.92351 158.263 9.76751C158.307 9.67751 158.367 9.53151 158.445 9.32651C158.536 9.08651 158.557 8.79951 158.509 8.47651C158.459 8.09651 158.244 7.67651 157.851 7.19151C157.479 6.73251 156.962 6.29151 156.315 5.88251C155.673 5.47751 154.905 5.13351 154.032 4.86051C153.155 4.58751 152.182 4.44851 151.141 4.44851C149.675 4.44851 148.289 4.72551 147.021 5.27051C145.751 5.81751 144.636 6.61551 143.708 7.64251C142.782 8.66651 142.038 9.93551 141.497 11.4135C140.957 12.8885 140.673 14.5885 140.652 16.4645C140.63 18.3455 140.899 20.0535 141.45 21.5395C142.002 23.0305 142.79 24.3165 143.791 25.3635C144.794 26.4115 145.998 27.2205 147.371 27.7645C148.741 28.3075 150.24 28.5835 151.827 28.5835C152.934 28.5835 153.946 28.4275 154.836 28.1205C155.721 27.8145 156.484 27.4425 157.104 27.0155C157.73 26.5835 158.225 26.1325 158.575 25.6735C158.941 25.1925 159.143 24.8085 159.195 24.4865C159.244 24.0685 159.171 23.6575 158.98 23.2635C158.781 22.8575 158.403 22.5395 157.873 22.3275ZM127.027 18.6925L129.032 12.0785L131.037 18.6925H127.027ZM131.368 6.28651C131.246 5.88851 130.986 5.53151 130.596 5.22751C130.202 4.92251 129.676 4.76751 129.032 4.76751C128.388 4.76751 127.862 4.92251 127.467 5.22751C127.076 5.53251 126.816 5.88851 126.697 6.27951L120.274 25.4735C119.942 26.4645 120.016 27.1945 120.492 27.6415C120.931 28.0545 121.516 28.2635 122.234 28.2635C122.949 28.2635 123.508 28.0815 123.895 27.7235C124.261 27.3835 124.549 26.9305 124.752 26.3785L126.051 22.8985H131.983L133.407 26.5425C133.588 27.0055 133.852 27.4115 134.192 27.7485C134.54 28.0915 135.05 28.2655 135.708 28.2655L135.83 28.2635C136.548 28.2635 137.134 28.0485 137.574 27.6225C138.045 27.1675 138.139 26.4675 137.852 25.5355L131.368 6.28651ZM117.775 5.08751H108.139C107.401 5.08751 106.854 5.23251 106.467 5.53051C106.058 5.84451 105.851 6.38651 105.851 7.14251V26.6555C105.851 27.0385 106.034 27.4075 106.396 27.7525C106.756 28.0965 107.326 28.2635 108.139 28.2635C108.946 28.2635 109.524 28.0985 109.905 27.7585C110.293 27.4135 110.489 27.0425 110.489 26.6555V18.2355H116.808C117.555 18.2355 118.087 18.0805 118.437 17.7605C118.791 17.4365 118.971 16.9045 118.971 16.1805C118.971 15.4845 118.795 14.9515 118.427 14.5765C118.022 14.2345 117.477 14.0615 116.808 14.0615H110.489V9.26151H117.743C118.41 9.26151 118.943 9.10651 119.326 8.79951C119.735 8.47251 119.93 7.92351 119.906 7.16551C119.882 6.42151 119.686 5.88151 119.321 5.55951C118.966 5.24651 118.446 5.08751 117.775 5.08751ZM90.3835 14.3805V9.32551H93.3665C93.8045 9.32551 94.2345 9.36251 94.6425 9.43351C95.0295 9.50151 95.3725 9.62751 95.6615 9.80851C95.9415 9.98451 96.1565 10.2235 96.3205 10.5395C96.4835 10.8575 96.5665 11.2725 96.5665 11.7735C96.5665 12.8495 96.3145 13.5535 95.8175 13.8655C95.2745 14.2075 94.4505 14.3805 93.3665 14.3805H90.3835ZM95.7095 18.3745C95.7375 18.3695 95.7655 18.3635 95.7935 18.3575L96.4235 18.2285C97.8725 17.8965 99.0435 17.2085 99.9025 16.1835C100.767 15.1525 101.205 13.6585 101.205 11.7415C101.205 10.4965 101.036 9.43251 100.701 8.57951C100.359 7.71351 99.8445 7.01051 99.1705 6.48851C98.5045 5.97551 97.6685 5.60751 96.6845 5.39751C95.7225 5.19151 94.6055 5.08751 93.3665 5.08751H88.6575C88.1065 5.08751 87.6465 5.11551 87.2885 5.17051C86.8905 5.23351 86.5865 5.35151 86.3575 5.53351C86.1195 5.72351 85.9545 5.99251 85.8655 6.32951C85.7855 6.63351 85.7465 7.01451 85.7465 7.49451V26.3045C85.7465 26.7575 85.9155 27.1975 86.2495 27.6115C86.5975 28.0445 87.1865 28.2635 88.0025 28.2635C88.8065 28.2635 89.4105 28.0625 89.7995 27.6655C90.1875 27.2675 90.3835 26.8095 90.3835 26.3045V19.3245L98.1495 27.6975C98.5205 28.0775 99.0025 28.2705 99.5795 28.2705C99.6455 28.2705 99.7115 28.2675 99.7805 28.2625C100.431 28.2145 100.997 27.9495 101.463 27.4735C101.936 26.9885 102.164 26.4195 102.14 25.7815C102.117 25.1535 101.868 24.5915 101.399 24.1115L95.7095 18.3745ZM79.3965 4.76751C78.5395 4.76751 77.9285 4.98751 77.5805 5.41951C77.2465 5.83451 77.0775 6.27451 77.0775 6.72751V18.5435C77.0775 19.4585 77.0155 20.2795 76.8945 20.9825C76.7775 21.6595 76.5585 22.2375 76.2415 22.6995C75.9305 23.1525 75.5045 23.5055 74.9735 23.7475C74.4325 23.9955 73.7275 24.1205 72.8785 24.1205C72.0095 24.1205 71.2895 23.9905 70.7385 23.7325C70.1975 23.4805 69.7665 23.1175 69.4555 22.6535C69.1355 22.1775 68.9045 21.5915 68.7675 20.9105C68.6265 20.2105 68.5555 19.4145 68.5555 18.5435V6.72751C68.5555 6.22551 68.3715 5.76951 68.0085 5.37351C67.6405 4.97151 67.0445 4.76751 66.2365 4.76751C65.4245 4.76751 64.8265 4.98451 64.4575 5.41251C64.0995 5.82951 63.9175 6.27151 63.9175 6.72751V20.5235C63.9175 21.8685 64.1865 23.0505 64.7175 24.0375C65.2445 25.0165 65.9375 25.8435 66.7775 26.4945C67.6125 27.1415 68.5725 27.6305 69.6315 27.9485C70.6835 28.2635 71.7655 28.4235 72.8475 28.4235C73.9495 28.4235 75.0425 28.2635 76.0945 27.9485C77.1545 27.6305 78.1105 27.1345 78.9365 26.4755C79.7655 25.8135 80.4425 24.9815 80.9485 24.0005C81.4565 23.0135 81.7145 21.8435 81.7145 20.5235V6.72751C81.7145 6.22551 81.5305 5.76951 81.1685 5.37351C80.7995 4.97151 80.2035 4.76751 79.3965 4.76751ZM59.4495 16.9985C58.9865 16.4915 58.3935 16.0125 57.6875 15.5735C56.9955 15.1445 56.1655 14.7085 55.2225 14.2785C54.8455 14.1065 54.4205 13.9245 53.9495 13.7315C53.4985 13.5465 53.0635 13.3185 52.6565 13.0535C52.2575 12.7955 51.9195 12.4945 51.6495 12.1575C51.4005 11.8495 51.2795 11.4935 51.2795 11.0715C51.2795 10.8135 51.3355 10.5455 51.4445 10.2745C51.5555 10.0005 51.7105 9.75051 51.9045 9.53151C52.0985 9.31551 52.3375 9.13351 52.6155 8.99151C53.1345 8.72451 53.8505 8.72751 54.5045 8.93051C54.8305 9.03151 55.1415 9.15451 55.4285 9.29651C55.7175 9.43851 55.9945 9.59851 56.2535 9.77251C56.5205 9.95151 56.7575 10.1155 56.9405 10.2435C57.1255 10.4055 57.3605 10.5145 57.6395 10.5665C57.9055 10.6165 58.1795 10.6095 58.4555 10.5485C58.7265 10.4885 58.9885 10.3785 59.2335 10.2235C59.4875 10.0625 59.7025 9.84251 59.8765 9.56251C60.1935 9.01351 60.2365 8.42651 60.0065 7.81651C59.7905 7.24751 59.3825 6.71651 58.7935 6.23751C58.2205 5.77251 57.4945 5.38051 56.6345 5.07251C55.7775 4.76551 54.8345 4.59851 53.8325 4.57651L53.6265 4.57351C52.7965 4.57351 51.9705 4.69751 51.1695 4.94051C50.2975 5.20451 49.5065 5.60751 48.8165 6.13751C48.1205 6.67151 47.5525 7.35451 47.1285 8.16751C46.7025 8.98551 46.4855 9.94051 46.4855 11.0065C46.4855 12.0065 46.6635 12.8885 47.0145 13.6285C47.3615 14.3625 47.8355 15.0065 48.4235 15.5415C49.0035 16.0695 49.6925 16.5315 50.4715 16.9135C51.2325 17.2875 52.0655 17.6405 52.9535 17.9645C53.2545 18.0685 53.5935 18.2135 53.9625 18.3975C54.3215 18.5765 54.6575 18.8035 54.9585 19.0725C55.2565 19.3385 55.5145 19.6535 55.7275 20.0095C55.9275 20.3425 56.0285 20.7415 56.0285 21.1945C56.0285 21.6805 55.9425 22.1165 55.7745 22.4905C55.6055 22.8655 55.3785 23.1805 55.0995 23.4275C54.8165 23.6795 54.4855 23.8755 54.1165 24.0105C53.2875 24.3175 52.3985 24.2535 51.6775 24.0375C51.2705 23.9155 50.8785 23.7555 50.5125 23.5625C50.1435 23.3685 49.7875 23.1505 49.4545 22.9135C49.1105 22.6675 48.7815 22.4375 48.4645 22.2205C48.0535 21.9495 47.6085 21.8405 47.1305 21.9035C46.6375 21.9695 46.2155 22.2775 45.8865 22.8065C45.6855 23.0905 45.5775 23.4365 45.5665 23.8355C45.5535 24.2165 45.6295 24.6125 45.7905 25.0125C45.9485 25.4055 46.2035 25.7965 46.5495 26.1735C46.8945 26.5495 47.3575 26.8875 47.9225 27.1755C48.5345 27.5005 49.2685 27.8035 50.1045 28.0735C50.8375 28.3115 51.6255 28.4325 52.4455 28.4325C52.5755 28.4325 52.7075 28.4295 52.8365 28.4225C55.4595 28.3365 57.4455 27.6135 58.7415 26.2755C60.0375 24.9375 60.7155 23.1545 60.7595 20.9795C60.7805 20.1595 60.6865 19.4165 60.4795 18.7695C60.2695 18.1135 59.9225 17.5185 59.4495 16.9985ZM19.4465 27.6775V22.0645H23.0205C23.6115 22.0645 24.0905 21.5295 24.0905 20.8685C24.0905 20.2085 23.6115 19.6735 23.0205 19.6735H19.4365L19.4235 17.6985H26.5235C27.1145 17.6985 27.5935 17.1635 27.5935 16.5035C27.5935 15.8425 27.1145 15.3075 26.5235 15.3075H19.4085L19.3965 13.3965H23.0205C23.6115 13.3965 24.0905 12.8605 24.0905 12.2005C24.0905 11.5395 23.6115 11.0045 23.0205 11.0045H19.3815L19.3475 5.56351L34.2855 16.5515L19.4465 27.6775ZM18.5915 0.460508C18.0435 0.0545082 17.3175 0.000508138 16.7155 0.321508C16.1135 0.636508 15.7355 1.27251 15.7355 1.96951L15.7375 11.0045H9.15651C8.56551 11.0045 8.08651 11.5395 8.08651 12.2005C8.08651 12.8605 8.56551 13.3965 9.15651 13.3965H15.7375L15.7385 15.3075H5.06951C4.47851 15.3075 3.99951 15.8425 3.99951 16.5035C3.99951 17.1635 4.47851 17.6985 5.06951 17.6985H15.7385V19.6735H9.15651C8.56551 19.6735 8.08651 20.2085 8.08651 20.8685C8.08651 21.5295 8.56551 22.0645 9.15651 22.0645H15.7395L15.7415 31.1455C15.7415 31.8425 16.1195 32.4725 16.7215 32.7935C16.9805 32.9335 17.2645 33.0005 17.5475 33.0005C17.9195 33.0005 18.2855 32.8855 18.5975 32.6545L38.4405 18.0855C38.9125 17.7395 39.1965 17.1755 39.1965 16.5815C39.1845 15.9695 38.9065 15.4065 38.4345 15.0605L18.5915 0.460508Z" fill="#FEFEFE"/>
</g>
<defs>
<filter id="filter0_d" x="-0.000488281" y="0.113586" width="197" height="40.8869" filterUnits="userSpaceOnUse" color-interpolation-filters="sRGB">
<feFlood flood-opacity="0" result="BackgroundImageFix"/>
<feColorMatrix in="SourceAlpha" type="matrix" values="0 0 0 0 0 0 0 0 0 0 0 0 0 0 0 0 0 0 127 0"/>
<feOffset dy="4"/>
<feGaussianBlur stdDeviation="2"/>
<feColorMatrix type="matrix" values="0 0 0 0 0 0 0 0 0 0 0 0 0 0 0 0 0 0 0.25 0"/>
<feBlend mode="normal" in2="BackgroundImageFix" result="effect1_dropShadow"/>
<feBlend mode="normal" in="SourceGraphic" in2="effect1_dropShadow" result="shape"/>
</filter>
</defs>
</svg>
