<svg style="display: none">
  <symbol id="tw" viewBox="0 0 27 22" style="background-color: red">
    <path d="M26.2555 0.406512C25.1845 1.04251 23.9985 1.50451 22.7355 1.75451C21.7255 0.673512 20.2875 -0.000488281 18.6935 -0.000488281C15.6345 -0.000488281 13.1545 2.48751 13.1545 5.55451C13.1545 5.98951 13.2035 6.41351 13.2975 6.81951C8.69449 6.58851 4.61349 4.37651 1.88149 1.01551C1.40449 1.83451 1.13249 2.78851 1.13249 3.80751C1.13249 5.73551 2.11049 7.43551 3.59549 8.43051C2.68749 8.40051 1.83449 8.14951 1.08649 7.73351V7.80251C1.08649 10.4945 2.99649 12.7385 5.52949 13.2505C5.06549 13.3765 4.57649 13.4455 4.07049 13.4455C3.71249 13.4455 3.36649 13.4095 3.02749 13.3445C3.73249 15.5515 5.77749 17.1575 8.20049 17.2035C6.30549 18.6925 3.91649 19.5805 1.32149 19.5805C0.874488 19.5805 0.433488 19.5535 0.000488281 19.5045C2.45249 21.0795 5.36249 21.9995 8.49149 21.9995C18.6795 21.9995 24.2505 13.5355 24.2505 6.19351L24.2325 5.47451C25.3175 4.69451 26.2585 3.71551 27.0005 2.60251C26.0065 3.04351 24.9405 3.34451 23.8195 3.47751C24.9635 2.79051 25.8405 1.70051 26.2555 0.406512Z"/>
  </symbol>

  <symbol id="in" viewBox="0 0 24 24" style="background-color: red">
    <path d="M2.99981 4.82059e-05C1.30151 -0.00922914 -0.000488281 1.32177 -0.000488281 2.96177L-0.000487671 21.0289C-0.000487671 22.6689 1.30151 23.9999 2.90551 23.9999H20.1395C21.7435 23.9999 23.0445 22.6689 23.0445 21.0289V2.96177C23.0455 1.32177 21.7435 -0.00922914 19.9998 4.82059e-05H2.99981ZM8.00015 12.4994C8.00015 12.4994 8.27834 9.00005 11.4998 9.00005C14.7225 9.00005 14.9995 12.4994 14.9995 12.4994C14.9995 12.4994 15.1019 16 11.4998 16C7.89899 16 8.00015 12.4994 8.00015 12.4994ZM19.9998 19.6802C19.9933 20.4802 19.4166 21 18.6337 21H4.65985C3.94683 21 3.09056 20.4802 2.99981 19.6807V12.437C3.09056 11.6375 3.68401 10.9794 4.46689 10.9794H5.26731C5.32288 10.9794 5.37553 10.9853 5.42525 10.994C5.72358 11.0525 5.91565 11.2739 5.93612 11.5566C5.93904 11.6044 5.93807 11.6531 5.93124 11.7028C5.92637 11.7369 6.00534 11.773 6.00046 11.8062C5.97707 12.0129 6.03654 12.2225 6.03654 12.436C6.03654 15.5997 8.44171 18.1676 11.5225 18.2252C11.4874 18.2261 11.4153 18.231 11.3802 18.231C11.4153 18.231 11.4299 18.2261 11.465 18.2252C11.5001 18.2261 11.5245 18.231 11.5596 18.231C14.6891 18.231 17.221 15.6367 17.222 12.437C17.222 12.2244 17.2015 12.0129 17.1781 11.8071C17.1742 11.772 17.1742 11.736 17.1703 11.7028C17.1635 11.6531 17.1616 11.6044 17.1645 11.5566C17.1849 11.2739 17.377 11.0516 17.6753 10.994C17.7251 10.9853 17.7767 10.9794 17.8323 10.9794H18.6337C19.4166 10.9794 19.9998 11.5566 19.9998 12.44V19.6802ZM19.9989 5.64421C19.9989 6.39238 19.3916 7.00005 18.6435 7.00005H17.3552C16.6062 7.00005 15.9998 6.39238 15.9998 5.64421V4.35498C15.9998 3.6068 16.6062 3.00005 17.3552 3.00005H18.6435C19.3916 3.00005 19.9998 3.6068 19.9998 4.35498V5.64421H19.9989Z"/>
  </symbol>

    <symbol id="fb" viewBox="0 0 15 27" style="background-color: red">
      <path d="M13.6605 0.00502344L10.2555 -0.000976562C6.43049 -0.000976562 3.95849 2.60702 3.95849 6.64402V9.70802H0.535488C0.239488 9.70802 0.000488281 9.95502 0.000488281 10.259V14.698C0.000488281 15.002 0.239488 15.248 0.535488 15.248H3.95849V26.45C3.95849 26.754 4.19849 27 4.49349 27H8.96049C9.25649 27 9.49549 26.753 9.49549 26.45V15.248H13.4985C13.7945 15.248 14.0335 15.002 14.0335 14.698L14.0355 10.259C14.0355 10.113 13.9785 9.97302 13.8785 9.87002C13.7775 9.76602 13.6415 9.70802 13.4995 9.70802H9.49549V7.11102C9.49549 5.86202 9.78549 5.22902 11.3665 5.22902L13.6595 5.22802C13.9555 5.22802 14.1955 4.98102 14.1955 4.67802V0.556023C14.1955 0.252023 13.9555 0.00502344 13.6605 0.00502344Z"/>
    </symbol>
</svg>
