<svg xmlns="http://www.w3.org/2000/svg" viewBox="0 0 40 40">
<path fill="#E71B20" d="M14.381,20.216c0.171-0.604,0.646-0.903,0.773-1.552c0.733-0.164,0.91,0.645,1.357,0.194
	c0.275-0.987-1.052-0.37-0.775-1.357c0.767-0.117,1.124,0.758,1.745,0.194c-0.167-0.608-1.12-0.431-1.164-1.162
	c0.667-0.568,0.843,0.593,1.746,0.387c0.242-1.211-1.656-0.652-0.971-1.744c0.749,0.027,0.896,0.654,1.744,0.581
	c0.095-0.933-0.757-0.921-1.355-1.162c0.32-0.648,0.647-1.29,0.969-1.938c0.671,0.492,1.339,0.987,1.357,2.133
	C18.188,16.679,17.456,20.423,14.381,20.216z"/>
<path fill="#E71B20" d="M28.141,13.432c0.713,0.645,1.053,1.663,1.357,2.713c-1.434,0.958-3.204,1.577-5.04,2.133
	c0.222-1.523,1.175-2.315,1.938-3.296C27.004,14.49,27.579,13.969,28.141,13.432z"/>
<path fill="#E71B20" d="M9.922,22.541c1.759,0.95,4.203,0.016,5.814-0.387c0.855-0.08,1.498,0.051,1.938,0.387
	c0,0.064,0,0.129,0,0.193c-1.809,1.285-4.938,1.643-7.753,1.355c-0.157-0.035-0.192-0.193-0.388-0.191
	c0.002-0.517-0.073-1.107,0.193-1.357C9.792,22.541,9.858,22.541,9.922,22.541z"/>
<path fill="#10263E" d="M29.498,16.145c0.495,0.474,0.663,1.275,0.97,1.938c-0.921,1.05-3.661,3.384-6.202,3.683
	c-1.219,0.145-3.615-0.58-2.908,1.356c0.779-0.124,2.062,0.252,2.521-0.194c0.39,0,0.774,0,1.163,0
	c0.341,0.111,1.141-0.234,1.162,0.194c-0.705-0.06-1.262,0.03-1.744,0.194c-0.665-0.086-1.085,0.076-1.55,0.192
	c1.229,0.578,3.809-0.19,5.04,0.39c-5.942-0.209-13.147,2.438-18.026,0.191c2.815,0.286,5.944-0.07,7.753-1.355
	c2.606-1.141,4.271-3.223,6.783-4.458C26.294,17.722,28.064,17.103,29.498,16.145z"/>
<path fill="#10263E" d="M19.808,14.789c3.199,1.344,5.598-0.648,6.588-2.715c1.071-0.037,1.437,0.633,1.744,1.357
	c-0.562,0.537-1.137,1.059-1.744,1.55c-3.403,2.54-6.699,5.188-10.66,7.173c-1.611,0.4-4.056,1.337-5.814,0.387
	c1.796-0.466,3.329-1.191,4.459-2.325C17.456,20.423,18.188,16.679,19.808,14.789z"/>
<path fill="#9297A2" d="M25.04,22.928c0.522-0.445,1.869-0.068,2.714-0.191c-0.34,0.306-1.033,0.259-1.552,0.387
	C26.18,22.693,25.381,23.039,25.04,22.928z"/>
<path fill="#525C6D" d="M21.357,23.122c0.457-0.444,1.738-0.069,2.52-0.194C23.418,23.374,22.137,22.998,21.357,23.122z"/>
<path fill="#CFD0D5" d="M27.947,23.898c-1.23-0.58-3.809,0.188-5.039-0.39c0.465-0.116,0.885-0.278,1.55-0.192
	c1.883,0.51,3.948-0.049,5.621,0.388C29.748,24.148,28.6,23.775,27.947,23.898z"/>
<path fill="#10263E" d="M24.848,10.523c0.435,0.232,1.526-0.533,1.938-0.969c0.107,1.081-0.825,2.79-2.327,2.907
	c-0.198,0.651,0.604,0.302,0.97,0.389c-0.314,0.718-0.807,1.26-1.938,1.162c0.031-1.195-0.35-1.978-1.553-1.938
	c0.252,0.46,0.977,0.447,0.971,1.163c0.143,0.854-0.627,0.794-0.775,1.357c-0.749,0.038-1.429,0.007-1.938-0.194
	c-3.275-5.108,5.898-6.18,6.396-10.853c-0.054-0.348,0.183-0.398,0.194-0.194C28.214,6.05,26.674,9.32,24.848,10.523z"/>
<path fill="#10263E" d="M3.927,27.658H3.663c-0.051-0.18-0.153-0.373-0.309-0.58c-0.157-0.205-0.307-0.316-0.451-0.338
	c-0.073-0.01-0.159-0.014-0.259-0.021c-0.101-0.007-0.213-0.007-0.34-0.007h-0.84v1.953H2.04c0.176,0,0.311-0.017,0.407-0.054
	c0.097-0.034,0.18-0.09,0.248-0.162c0.046-0.051,0.091-0.129,0.129-0.234c0.038-0.107,0.064-0.22,0.077-0.343h0.264v1.915H2.901
	c-0.009-0.102-0.032-0.219-0.073-0.344c-0.042-0.129-0.087-0.221-0.133-0.277c-0.07-0.085-0.159-0.143-0.267-0.173
	c-0.108-0.031-0.237-0.048-0.389-0.048H1.464v1.674c0,0.076,0.016,0.143,0.046,0.201c0.03,0.06,0.085,0.107,0.163,0.145
	c0.034,0.018,0.111,0.036,0.229,0.059c0.118,0.022,0.207,0.035,0.268,0.039v0.242H0v-0.242c0.07-0.006,0.165-0.014,0.282-0.022
	c0.119-0.011,0.193-0.022,0.229-0.041c0.071-0.028,0.121-0.071,0.153-0.131c0.032-0.06,0.049-0.13,0.049-0.21v-3.512
	c0-0.074-0.015-0.142-0.041-0.199c-0.023-0.059-0.078-0.105-0.161-0.143c-0.064-0.029-0.148-0.057-0.256-0.078
	C0.149,26.705,0.064,26.689,0,26.686v-0.242h3.927V27.658z"/>
<path fill="#10263E" d="M6.044,31.307H4.347v-0.228c0.054-0.007,0.112-0.011,0.173-0.017c0.063-0.006,0.113-0.014,0.151-0.024
	c0.066-0.021,0.117-0.058,0.149-0.108c0.032-0.051,0.048-0.117,0.048-0.199v-3.916c0-0.084-0.018-0.16-0.054-0.232
	c-0.037-0.072-0.083-0.129-0.144-0.17c-0.042-0.027-0.119-0.053-0.231-0.075c-0.113-0.022-0.204-0.036-0.272-0.042v-0.219L5.476,26
	l0.05,0.051v4.637c0,0.082,0.017,0.146,0.047,0.199c0.03,0.051,0.078,0.09,0.146,0.117c0.053,0.021,0.104,0.041,0.153,0.049
	c0.051,0.014,0.109,0.021,0.172,0.026V31.307z"/>
<path fill="#10263E" d="M6.302,32.409c0-0.115,0.034-0.208,0.099-0.279c0.064-0.071,0.146-0.106,0.24-0.106
	c0.076,0,0.141,0.013,0.195,0.039c0.055,0.027,0.101,0.063,0.144,0.105c0.036,0.034,0.074,0.08,0.112,0.139
	c0.041,0.061,0.073,0.107,0.097,0.146c0.117-0.063,0.259-0.223,0.422-0.482c0.163-0.259,0.28-0.488,0.354-0.684
	c-0.224-0.541-0.428-1.025-0.606-1.452c-0.182-0.428-0.371-0.869-0.568-1.325c-0.045-0.105-0.121-0.188-0.227-0.246
	s-0.211-0.096-0.318-0.111v-0.227h1.589v0.24c-0.07,0.002-0.155,0.018-0.254,0.043s-0.147,0.057-0.147,0.09
	c0,0.014,0.004,0.039,0.017,0.068c0.01,0.031,0.021,0.064,0.036,0.102c0.089,0.227,0.226,0.551,0.409,0.977
	c0.182,0.426,0.324,0.767,0.425,1.021c0.105-0.244,0.216-0.496,0.329-0.759c0.115-0.261,0.244-0.569,0.385-0.925
	c0.017-0.045,0.038-0.104,0.07-0.182c0.03-0.076,0.045-0.142,0.045-0.195c0-0.061-0.053-0.115-0.159-0.168
	c-0.107-0.051-0.21-0.081-0.307-0.094v-0.22h1.292v0.214c-0.07,0.012-0.163,0.051-0.278,0.117c-0.114,0.066-0.201,0.162-0.258,0.286
	c-0.28,0.63-0.528,1.205-0.746,1.724c-0.218,0.521-0.383,0.9-0.496,1.146c-0.146,0.321-0.279,0.569-0.396,0.748
	c-0.115,0.18-0.23,0.319-0.341,0.425c-0.106,0.096-0.206,0.16-0.294,0.193c-0.087,0.033-0.18,0.051-0.272,0.051
	c-0.184,0-0.329-0.043-0.434-0.128S6.302,32.52,6.302,32.409z"/>
<path fill="#10263E" d="M12.168,31.307h-1.679v-0.228c0.054-0.007,0.108-0.009,0.167-0.013c0.057-0.006,0.106-0.016,0.149-0.028
	c0.066-0.021,0.114-0.058,0.146-0.108c0.032-0.051,0.047-0.117,0.047-0.199v-2.086c0-0.069-0.017-0.139-0.051-0.199
	c-0.034-0.059-0.08-0.111-0.143-0.152c-0.045-0.027-0.109-0.05-0.193-0.068c-0.085-0.021-0.164-0.031-0.234-0.035V27.96l1.228-0.071
	l0.051,0.045v2.756c0,0.08,0.016,0.146,0.046,0.199c0.032,0.053,0.083,0.09,0.149,0.116c0.053,0.021,0.103,0.036,0.151,0.05
	s0.104,0.021,0.165,0.025L12.168,31.307L12.168,31.307z M11.727,26.553c0,0.129-0.044,0.243-0.133,0.34
	c-0.087,0.099-0.195,0.146-0.327,0.146c-0.118,0-0.224-0.047-0.31-0.139c-0.089-0.094-0.134-0.198-0.134-0.317
	c0-0.124,0.045-0.233,0.134-0.328c0.086-0.094,0.191-0.14,0.31-0.14c0.136,0,0.246,0.043,0.331,0.131
	C11.685,26.333,11.727,26.434,11.727,26.553z"/>
<path fill="#10263E" d="M16.619,31.307h-1.701v-0.228c0.055-0.007,0.115-0.009,0.18-0.013c0.064-0.006,0.116-0.016,0.159-0.028
	c0.066-0.021,0.114-0.058,0.146-0.108c0.032-0.051,0.049-0.117,0.049-0.199v-1.736c0-0.242-0.059-0.426-0.176-0.557
	c-0.116-0.129-0.258-0.195-0.425-0.195c-0.125,0-0.24,0.02-0.345,0.057c-0.104,0.037-0.195,0.084-0.274,0.139
	c-0.078,0.054-0.141,0.109-0.188,0.17c-0.044,0.062-0.078,0.109-0.101,0.146v1.944c0,0.076,0.018,0.142,0.05,0.191
	c0.032,0.051,0.083,0.088,0.147,0.116c0.051,0.022,0.104,0.041,0.161,0.05c0.059,0.014,0.117,0.021,0.178,0.025v0.227h-1.703V31.08
	c0.054-0.006,0.11-0.01,0.167-0.014c0.059-0.006,0.108-0.014,0.151-0.027c0.064-0.021,0.114-0.057,0.145-0.107
	c0.032-0.052,0.049-0.119,0.049-0.201v-2.084c0-0.078-0.017-0.149-0.051-0.215c-0.034-0.064-0.082-0.117-0.143-0.156
	c-0.045-0.029-0.099-0.049-0.159-0.063c-0.06-0.013-0.127-0.021-0.198-0.023V27.96l1.157-0.071l0.049,0.045v0.477h0.018
	c0.057-0.055,0.127-0.12,0.212-0.196c0.085-0.075,0.165-0.138,0.24-0.188c0.087-0.053,0.191-0.098,0.311-0.135
	c0.121-0.037,0.256-0.056,0.405-0.056c0.334,0,0.582,0.103,0.743,0.304c0.162,0.203,0.242,0.473,0.242,0.807v1.76
	c0,0.08,0.015,0.145,0.042,0.193c0.028,0.049,0.077,0.088,0.144,0.113c0.057,0.021,0.106,0.041,0.147,0.049
	c0.042,0.01,0.099,0.016,0.171,0.021L16.619,31.307L16.619,31.307z"/>
<path fill="#10263E" d="M20.085,30.955c0.095,0.087,0.169,0.184,0.224,0.296c0.055,0.108,0.08,0.245,0.08,0.407
	s-0.036,0.314-0.108,0.457c-0.072,0.144-0.184,0.267-0.333,0.373c-0.157,0.105-0.345,0.189-0.564,0.248
	c-0.218,0.062-0.487,0.092-0.811,0.092c-0.527,0-0.921-0.075-1.183-0.227c-0.261-0.148-0.392-0.369-0.392-0.654
	c0-0.234,0.095-0.418,0.282-0.553c0.189-0.136,0.43-0.209,0.72-0.221v-0.048c-0.07-0.021-0.143-0.046-0.218-0.077
	c-0.076-0.031-0.141-0.066-0.195-0.107c-0.061-0.047-0.108-0.104-0.147-0.17c-0.038-0.064-0.056-0.146-0.056-0.24
	c0-0.123,0.044-0.232,0.133-0.334c0.087-0.104,0.222-0.189,0.399-0.264v-0.05c-0.227-0.104-0.401-0.235-0.526-0.397
	c-0.123-0.16-0.186-0.348-0.186-0.562c0-0.319,0.123-0.582,0.369-0.786c0.245-0.207,0.56-0.31,0.943-0.31
	c0.104,0,0.209,0.011,0.314,0.03c0.104,0.021,0.211,0.048,0.32,0.08h1.214v0.328h-0.818v0.021c0.086,0.099,0.15,0.206,0.193,0.325
	c0.042,0.117,0.063,0.234,0.063,0.351c0,0.298-0.123,0.55-0.371,0.754c-0.248,0.205-0.536,0.308-0.867,0.308h-0.427
	c-0.053,0.018-0.109,0.053-0.17,0.101c-0.059,0.049-0.087,0.114-0.087,0.194c0,0.086,0.024,0.15,0.073,0.193
	c0.05,0.045,0.11,0.075,0.182,0.092c0.068,0.018,0.146,0.031,0.237,0.035c0.091,0.004,0.184,0.008,0.28,0.01
	c0.103,0.002,0.246,0.01,0.426,0.021c0.179,0.013,0.306,0.017,0.383,0.021c0.106,0.004,0.216,0.031,0.326,0.074
	C19.897,30.813,19.996,30.875,20.085,30.955z M19.811,31.783c0-0.126-0.03-0.23-0.093-0.313c-0.061-0.082-0.153-0.14-0.278-0.168
	c-0.064-0.01-0.201-0.02-0.405-0.031c-0.205-0.012-0.441-0.018-0.714-0.018c-0.254,0.049-0.433,0.129-0.54,0.242
	c-0.106,0.111-0.161,0.258-0.161,0.436c0,0.082,0.019,0.157,0.053,0.23c0.036,0.072,0.097,0.141,0.184,0.201
	c0.082,0.061,0.193,0.107,0.332,0.146c0.14,0.039,0.309,0.058,0.508,0.058c0.345,0,0.619-0.065,0.816-0.194
	C19.712,32.243,19.811,32.048,19.811,31.783z M19.133,28.951c0-0.268-0.056-0.48-0.167-0.641c-0.113-0.158-0.269-0.236-0.472-0.236
	c-0.111,0-0.206,0.021-0.284,0.066c-0.079,0.043-0.144,0.106-0.191,0.188c-0.047,0.075-0.081,0.166-0.101,0.272
	c-0.021,0.105-0.03,0.215-0.03,0.326c0,0.254,0.058,0.463,0.171,0.619c0.115,0.161,0.262,0.241,0.443,0.241
	c0.202,0,0.357-0.077,0.468-0.237C19.079,29.395,19.133,29.191,19.133,28.951z"/>
<path fill="#10263E" d="M26.059,29.611c0,0.51-0.166,0.934-0.494,1.277c-0.328,0.346-0.711,0.519-1.146,0.519
	c-0.189,0-0.377-0.027-0.563-0.083c-0.185-0.061-0.358-0.137-0.521-0.231l-0.262,0.396l-0.219-0.049
	c0.013-0.168,0.021-0.373,0.024-0.608c0.006-0.24,0.009-0.47,0.009-0.69v-3.348c0-0.079-0.019-0.156-0.056-0.232
	c-0.036-0.078-0.084-0.133-0.142-0.168c-0.045-0.029-0.119-0.052-0.224-0.066c-0.104-0.016-0.188-0.023-0.252-0.03v-0.219L23.493,26
	l0.049,0.051v2.229l0.024,0.007c0.146-0.149,0.307-0.265,0.479-0.339c0.172-0.075,0.344-0.113,0.508-0.113
	c0.43,0,0.786,0.164,1.072,0.494C25.915,28.654,26.059,29.084,26.059,29.611z M25.32,29.635c0-0.167-0.02-0.34-0.057-0.517
	s-0.098-0.328-0.177-0.458c-0.08-0.133-0.187-0.241-0.313-0.322c-0.129-0.083-0.285-0.124-0.467-0.124
	c-0.164,0-0.308,0.031-0.431,0.095c-0.125,0.063-0.235,0.147-0.335,0.256v1.968c0.014,0.055,0.042,0.118,0.083,0.19
	c0.042,0.072,0.097,0.144,0.167,0.209c0.07,0.064,0.15,0.116,0.24,0.156c0.091,0.04,0.199,0.061,0.328,0.061
	c0.287,0,0.519-0.135,0.695-0.403C25.23,30.473,25.32,30.104,25.32,29.635z"/>
<path fill="#10263E" d="M30.109,29.581c0,0.239-0.041,0.472-0.116,0.701c-0.079,0.229-0.188,0.425-0.333,0.584
	c-0.161,0.184-0.352,0.319-0.564,0.407c-0.214,0.09-0.453,0.134-0.72,0.134c-0.222,0-0.435-0.039-0.633-0.121
	c-0.199-0.08-0.377-0.198-0.534-0.354c-0.15-0.152-0.273-0.341-0.365-0.561c-0.091-0.221-0.135-0.469-0.135-0.742
	c0-0.525,0.157-0.961,0.475-1.295c0.315-0.337,0.73-0.504,1.246-0.504c0.486,0,0.889,0.158,1.204,0.479
	C29.95,28.628,30.109,29.051,30.109,29.581z M29.378,29.588c0-0.171-0.017-0.352-0.053-0.541c-0.034-0.191-0.089-0.354-0.159-0.486
	c-0.074-0.143-0.173-0.254-0.296-0.34c-0.123-0.087-0.272-0.13-0.449-0.13c-0.183,0-0.335,0.043-0.464,0.13
	c-0.129,0.088-0.234,0.207-0.313,0.356c-0.078,0.14-0.129,0.298-0.16,0.476c-0.029,0.18-0.047,0.352-0.047,0.518
	c0,0.221,0.02,0.424,0.056,0.609c0.036,0.187,0.095,0.354,0.176,0.5c0.08,0.146,0.181,0.26,0.302,0.344
	c0.121,0.082,0.272,0.125,0.45,0.125c0.294,0,0.526-0.14,0.701-0.414C29.293,30.456,29.378,30.075,29.378,29.588z"/>
<path fill="#10263E" d="M34.154,29.581c0,0.239-0.041,0.472-0.117,0.701c-0.079,0.229-0.188,0.425-0.333,0.584
	c-0.161,0.184-0.351,0.319-0.563,0.407c-0.215,0.09-0.453,0.134-0.721,0.134c-0.223,0-0.434-0.039-0.633-0.121
	c-0.199-0.08-0.377-0.198-0.534-0.354c-0.151-0.152-0.274-0.341-0.364-0.561c-0.092-0.221-0.136-0.469-0.136-0.742
	c0-0.525,0.157-0.961,0.474-1.295c0.316-0.337,0.731-0.504,1.246-0.504c0.487,0,0.889,0.158,1.205,0.479
	C33.994,28.628,34.154,29.051,34.154,29.581z M33.422,29.588c0-0.171-0.016-0.352-0.053-0.541c-0.034-0.191-0.088-0.354-0.159-0.486
	c-0.073-0.143-0.173-0.254-0.296-0.34c-0.123-0.087-0.271-0.13-0.449-0.13c-0.182,0-0.335,0.043-0.464,0.13
	c-0.129,0.088-0.233,0.207-0.313,0.356c-0.076,0.14-0.129,0.298-0.158,0.476c-0.03,0.18-0.047,0.352-0.047,0.518
	c0,0.221,0.019,0.424,0.055,0.609c0.035,0.187,0.095,0.354,0.176,0.5c0.08,0.146,0.182,0.26,0.303,0.344
	c0.121,0.082,0.271,0.125,0.449,0.125c0.294,0,0.527-0.14,0.701-0.414C33.337,30.456,33.422,30.075,33.422,29.588z"/>
<path fill="#10263E" d="M36.85,31.158c-0.152,0.061-0.299,0.113-0.434,0.156c-0.139,0.041-0.305,0.063-0.502,0.063
	c-0.291,0-0.496-0.07-0.615-0.215s-0.18-0.344-0.18-0.605v-2.289h-0.627v-0.328h0.642v-1.053h0.644v1.053h0.998v0.328h-0.992v1.89
	c0,0.142,0.007,0.26,0.017,0.354c0.013,0.096,0.036,0.176,0.076,0.248c0.039,0.065,0.095,0.115,0.17,0.15
	c0.074,0.033,0.175,0.052,0.302,0.052c0.062,0,0.147-0.004,0.262-0.019c0.113-0.008,0.195-0.021,0.24-0.036V31.158L36.85,31.158z"/>
<path fill="#10263E" d="M39.699,29.65c0.098,0.084,0.172,0.176,0.222,0.283C39.975,30.042,40,30.172,40,30.328
	c0,0.313-0.121,0.568-0.363,0.768c-0.238,0.199-0.552,0.299-0.935,0.299c-0.204,0-0.39-0.035-0.562-0.106
	c-0.17-0.069-0.293-0.136-0.365-0.194l-0.069,0.223h-0.265l-0.037-1.176h0.244c0.021,0.09,0.06,0.193,0.121,0.314
	c0.062,0.117,0.135,0.227,0.223,0.322c0.091,0.101,0.201,0.186,0.33,0.254c0.128,0.068,0.271,0.104,0.432,0.104
	c0.227,0,0.398-0.05,0.521-0.148c0.123-0.1,0.185-0.243,0.185-0.43c0-0.097-0.021-0.18-0.06-0.248
	c-0.037-0.07-0.094-0.131-0.172-0.186c-0.076-0.053-0.172-0.102-0.285-0.145c-0.112-0.039-0.237-0.08-0.377-0.121
	c-0.11-0.033-0.233-0.078-0.369-0.133c-0.135-0.055-0.25-0.123-0.348-0.197c-0.103-0.08-0.188-0.178-0.254-0.295
	c-0.066-0.116-0.099-0.254-0.099-0.414c0-0.273,0.104-0.508,0.315-0.699c0.213-0.191,0.496-0.288,0.852-0.288
	c0.139,0,0.275,0.017,0.42,0.052c0.141,0.033,0.258,0.074,0.348,0.124l0.08-0.179h0.254l0.053,1.086h-0.242
	c-0.051-0.242-0.157-0.439-0.32-0.594c-0.163-0.152-0.361-0.229-0.597-0.229c-0.193,0-0.345,0.048-0.455,0.142
	c-0.111,0.096-0.166,0.209-0.166,0.343c0,0.103,0.019,0.188,0.055,0.258c0.036,0.067,0.091,0.125,0.163,0.174
	c0.071,0.046,0.159,0.089,0.268,0.13c0.105,0.041,0.24,0.084,0.396,0.135c0.154,0.047,0.303,0.104,0.439,0.166
	C39.496,29.502,39.611,29.57,39.699,29.65z"/>
<path fill="#AFAFAF" d="M7.703,33.713v0.465h0.52v0.27h-0.52v1.046c0,0.239,0.068,0.377,0.271,0.377c0.1,0,0.157-0.009,0.21-0.024
	l0.017,0.271c-0.069,0.022-0.182,0.047-0.321,0.047c-0.169,0-0.306-0.056-0.393-0.147c-0.099-0.108-0.14-0.281-0.14-0.51v-1.059
	h-0.31v-0.27h0.311v-0.359L7.703,33.713z"/>
<path fill="#AFAFAF" d="M8.632,34.783c0-0.229-0.004-0.426-0.018-0.605h0.318l0.016,0.385h0.013c0.091-0.26,0.314-0.424,0.559-0.424
	c0.036,0,0.064,0.004,0.099,0.008v0.332c-0.038-0.01-0.075-0.01-0.125-0.01c-0.254,0-0.438,0.188-0.486,0.45
	C9,34.969,8.996,35.027,8.996,35.084v1.034H8.632V34.783z"/>
<path fill="#AFAFAF" d="M10.217,34.178l0.434,1.146c0.05,0.129,0.099,0.281,0.133,0.398h0.008c0.036-0.117,0.079-0.267,0.127-0.406
	l0.397-1.139h0.383l-0.544,1.383c-0.26,0.666-0.438,1.002-0.686,1.215c-0.182,0.148-0.354,0.207-0.445,0.226l-0.091-0.293
	c0.091-0.028,0.21-0.084,0.318-0.172c0.099-0.076,0.218-0.214,0.305-0.394c0.016-0.035,0.028-0.064,0.028-0.084
	c0-0.021-0.009-0.049-0.028-0.093l-0.734-1.788H10.217z"/>
<path fill="#AFAFAF" d="M13.31,33.631c0,0.122-0.087,0.219-0.232,0.219c-0.131,0-0.218-0.097-0.218-0.219
	c0-0.119,0.091-0.219,0.226-0.219C13.219,33.412,13.31,33.509,13.31,33.631z M12.904,36.118v-1.94h0.362v1.94H12.904z"/>
<path fill="#AFAFAF" d="M14.307,33.713v0.465h0.521v0.27h-0.521v1.046c0,0.239,0.071,0.377,0.272,0.377
	c0.099,0,0.157-0.009,0.212-0.024l0.016,0.271c-0.07,0.022-0.181,0.047-0.322,0.047c-0.169,0-0.305-0.056-0.391-0.147
	c-0.1-0.108-0.142-0.281-0.142-0.51v-1.059h-0.309v-0.27h0.309v-0.359L14.307,33.713z"/>
<path fill="#AFAFAF" d="M16.551,33.713v0.465h0.521v0.27h-0.521v1.046c0,0.239,0.068,0.377,0.272,0.377
	c0.099,0,0.157-0.009,0.209-0.024l0.017,0.271c-0.068,0.022-0.182,0.047-0.32,0.047c-0.17,0-0.307-0.056-0.394-0.147
	c-0.099-0.108-0.139-0.281-0.139-0.51v-1.059h-0.311v-0.27h0.311v-0.359L16.551,33.713z"/>
<path fill="#AFAFAF" d="M19.262,35.132c0,0.718-0.516,1.03-0.995,1.03c-0.536,0-0.956-0.385-0.956-0.998
	c0-0.646,0.441-1.025,0.99-1.025C18.873,34.139,19.262,34.542,19.262,35.132z M17.682,35.15c0,0.428,0.248,0.746,0.603,0.746
	c0.347,0,0.605-0.316,0.605-0.754c0-0.328-0.168-0.74-0.597-0.74C17.867,34.402,17.682,34.787,17.682,35.15z"/>
<path fill="#AFAFAF" d="M20.598,33.271h0.357v1.219h0.009c0.127-0.217,0.358-0.352,0.681-0.352c0.498,0,0.846,0.398,0.846,0.984
	c0,0.693-0.453,1.038-0.898,1.038c-0.287,0-0.521-0.108-0.674-0.361H20.91l-0.021,0.317h-0.311c0.011-0.133,0.02-0.33,0.02-0.502
	V33.271z M20.955,35.342c0,0.043,0.005,0.088,0.018,0.126c0.065,0.245,0.279,0.413,0.543,0.413c0.385,0,0.607-0.301,0.607-0.746
	c0-0.388-0.206-0.721-0.6-0.721c-0.244,0-0.474,0.168-0.549,0.434c-0.012,0.045-0.021,0.092-0.021,0.147L20.955,35.342
	L20.955,35.342z"/>
<path fill="#AFAFAF" d="M23.146,35.213c0.008,0.477,0.318,0.674,0.686,0.674c0.261,0,0.422-0.045,0.553-0.102l0.066,0.252
	c-0.129,0.057-0.352,0.125-0.669,0.125c-0.615,0-0.982-0.396-0.982-0.984c0-0.584,0.354-1.039,0.938-1.039
	c0.654,0,0.824,0.553,0.824,0.908c0,0.073-0.004,0.125-0.013,0.166H23.146z M24.211,34.959c0.004-0.219-0.095-0.568-0.504-0.568
	c-0.371,0-0.527,0.324-0.557,0.568H24.211z"/>
<path fill="#AFAFAF" d="M25.889,33.271h0.358v1.219h0.009c0.129-0.217,0.357-0.352,0.682-0.352c0.5,0,0.847,0.398,0.847,0.984
	c0,0.693-0.453,1.038-0.9,1.038c-0.288,0-0.519-0.108-0.672-0.361h-0.008l-0.022,0.317h-0.309c0.009-0.133,0.018-0.33,0.018-0.502
	v-2.344H25.889z M26.247,35.342c0,0.043,0.004,0.088,0.017,0.126c0.066,0.245,0.282,0.413,0.547,0.413
	c0.383,0,0.606-0.301,0.606-0.746c0-0.388-0.208-0.721-0.601-0.721c-0.242,0-0.476,0.168-0.549,0.434
	c-0.013,0.045-0.021,0.092-0.021,0.147L26.247,35.342L26.247,35.342z"/>
<path fill="#AFAFAF" d="M28.438,35.213c0.012,0.477,0.318,0.674,0.687,0.674c0.26,0,0.421-0.045,0.556-0.102l0.063,0.252
	c-0.127,0.057-0.351,0.125-0.667,0.125c-0.615,0-0.982-0.396-0.982-0.984c0-0.584,0.355-1.039,0.936-1.039
	c0.658,0,0.826,0.553,0.826,0.908c0,0.073-0.006,0.125-0.014,0.166H28.438z M29.505,34.959c0.004-0.219-0.097-0.568-0.504-0.568
	c-0.371,0-0.528,0.324-0.558,0.568H29.505z"/>
<path fill="#AFAFAF" d="M30.257,35.762c0.111,0.063,0.302,0.137,0.481,0.137c0.261,0,0.384-0.125,0.384-0.291
	s-0.103-0.254-0.367-0.351c-0.362-0.129-0.532-0.317-0.532-0.552c0-0.313,0.266-0.566,0.689-0.566c0.201,0,0.379,0.051,0.488,0.12
	l-0.088,0.257c-0.078-0.05-0.224-0.117-0.408-0.117c-0.215,0-0.332,0.121-0.332,0.265c0,0.161,0.117,0.231,0.375,0.333
	c0.344,0.125,0.525,0.294,0.525,0.583c0,0.344-0.277,0.584-0.742,0.584c-0.219,0-0.422-0.056-0.562-0.138L30.257,35.762z"/>
<path fill="#AFAFAF" d="M32.378,33.713v0.465h0.521v0.27h-0.521v1.046c0,0.239,0.069,0.377,0.272,0.377
	c0.099,0,0.156-0.009,0.211-0.024l0.017,0.271c-0.069,0.022-0.183,0.047-0.321,0.047c-0.17,0-0.306-0.056-0.393-0.147
	c-0.1-0.108-0.141-0.281-0.141-0.51v-1.059h-0.31v-0.27h0.31v-0.359L32.378,33.713z"/>
</svg>
