<?xml version="1.0" encoding="utf-8"?>
<!-- Generator: Adobe Illustrator 15.1.0, SVG Export Plug-In . SVG Version: 6.00 Build 0)  -->
<!DOCTYPE svg PUBLIC "-//W3C//DTD SVG 1.1//EN" "http://www.w3.org/Graphics/SVG/1.1/DTD/svg11.dtd">
<svg version="1.1" id="Layer_1" xmlns="http://www.w3.org/2000/svg" xmlns:xlink="http://www.w3.org/1999/xlink" x="0px" y="0px"
	 width="22px" height="23px" viewBox="0 0 22 23" enable-background="new 0 0 22 23" xml:space="preserve">
<polygon points="14.83,12.997 18.622,12.997 13.47,0.686 8.53,0.686 1,18.681 1,22.314 3.5,22.314 10.979,3.218 "/>
<polygon points="15.967,15.886 15.968,15.887 10.028,15.887 8.882,18.802 17.003,18.802 18.443,22.314 21,22.314 21,18.681 
	19.831,15.886 "/>
<path fill="#FF0000" d="M7.781,14.826l-0.065,0.189l-0.076,0.206l-0.049,0.159l-0.061-0.004l-0.065-0.004l-0.062,0.004l-0.066,0.004
	l0.766-1.853c0.035,0.004,0.067,0.008,0.102,0.008c0.031,0,0.066-0.004,0.101-0.008l0.748,1.854l-0.118-0.005L8.82,15.373
	l-0.115,0.006l-0.113,0.005C8.56,15.278,8.536,15.2,8.519,15.15c-0.029-0.087-0.05-0.148-0.063-0.187
	c-0.017-0.046-0.035-0.093-0.052-0.138H7.781z M8.343,14.666l-0.238-0.623l-0.251,0.623H8.343z"/>
<path fill="#FF0000" d="M9.602,14.337h0.014l0.019-0.002l0.016-0.002l0.017-0.001c0.016,0.044,0.032,0.087,0.049,0.13
	c0.018,0.05,0.033,0.089,0.043,0.114l0.101,0.263l0.097,0.244l0.12,0.297l-0.05-0.004L9.981,15.37l-0.039-0.001L9.905,15.37
	c-0.009,0-0.016,0-0.021,0.002c-0.006,0-0.015,0.001-0.025,0.004l-0.051,0.002c-0.017-0.057-0.036-0.117-0.058-0.182
	c-0.024-0.069-0.043-0.125-0.059-0.165l-0.074-0.195l-0.08-0.215c-0.124,0.303-0.219,0.556-0.284,0.757
	c-0.024-0.002-0.048-0.005-0.072-0.005c-0.023,0-0.046,0.003-0.07,0.005L9.23,15.1l0.105-0.247L9.437,14.6
	c0.015-0.039,0.032-0.083,0.05-0.132c0.019-0.049,0.035-0.095,0.05-0.136l0.027,0.002C9.58,14.336,9.591,14.337,9.602,14.337z"/>
<path fill="#FF0000" d="M10.451,14.782h0.147c0.107,0,0.189,0.022,0.246,0.065c0.056,0.044,0.083,0.108,0.083,0.193
	c0,0.124-0.036,0.211-0.111,0.261c-0.074,0.047-0.169,0.071-0.285,0.071h-0.309v-1.048l0.055,0.005l0.059,0.003l0.06-0.003
	l0.055-0.004V14.782z M10.451,15.287c0.045,0,0.078-0.004,0.102-0.011c0.048-0.012,0.083-0.037,0.105-0.075
	c0.022-0.037,0.034-0.082,0.034-0.133c0-0.061-0.014-0.109-0.042-0.146c-0.028-0.037-0.063-0.056-0.104-0.056h-0.097V15.287z"/>
<path fill="#FF0000" d="M11.498,15.38l-0.057-0.003l-0.057-0.004l-0.057,0.004l-0.058,0.003v-0.938
	c-0.081,0-0.176,0.009-0.283,0.024c0.004-0.035,0.008-0.057,0.008-0.065c0-0.01-0.003-0.031-0.008-0.066h0.785l-0.005,0.024
	l-0.003,0.021l-0.001,0.018l0.001,0.02l0.003,0.021l0.005,0.023c-0.123-0.013-0.215-0.021-0.274-0.021V15.38z"/>
<path fill="#FF0000" d="M12.509,14.334c-0.006,0.035-0.008,0.057-0.008,0.065c0,0.008,0.002,0.03,0.008,0.064
	c-0.106-0.014-0.226-0.02-0.358-0.02v0.329h0.162c0.046,0,0.108-0.004,0.189-0.015c-0.005,0.029-0.008,0.051-0.008,0.063
	c0,0.012,0.003,0.035,0.008,0.066c-0.061-0.007-0.125-0.011-0.189-0.011H12.15v0.385c0.133,0,0.252-0.008,0.358-0.021
	c-0.006,0.035-0.008,0.058-0.008,0.066l0.008,0.064h-0.585v-1.039H12.509z"/>
<path fill="#FF0000" d="M12.931,15.38l-0.058-0.003l-0.057-0.004c-0.01,0-0.02,0-0.029,0c-0.012,0.003-0.021,0.004-0.027,0.004
	l-0.057,0.003v-1.046h0.377c0.107,0,0.188,0.021,0.245,0.065c0.055,0.043,0.083,0.106,0.083,0.192s-0.02,0.154-0.058,0.201
	c-0.039,0.05-0.095,0.083-0.165,0.102c-0.071,0.02-0.156,0.029-0.255,0.029V15.38z M12.931,14.836c0.022,0,0.042-0.001,0.057-0.002
	c0.017-0.003,0.031-0.005,0.046-0.009c0.047-0.012,0.083-0.037,0.105-0.074c0.022-0.038,0.033-0.082,0.033-0.133
	c0-0.06-0.014-0.107-0.041-0.145c-0.027-0.036-0.063-0.055-0.103-0.055h-0.098V14.836z"/>
<path fill="#FF0000" d="M13.554,14.334l0.045,0.003l0.037,0.004h0.032h0.031l0.038-0.005l0.044-0.004v0.414
	c0.042,0,0.082,0,0.12,0.002s0.078,0.002,0.115,0.003c0.034-0.001,0.074-0.002,0.119-0.004c0.045-0.001,0.084-0.001,0.116-0.001
	v-0.412l0.043,0.003l0.038,0.004h0.032l0.033-0.003l0.038-0.002l0.043-0.004v1.047l-0.056-0.003l-0.059-0.003l-0.055,0.003
	l-0.059,0.003v-0.511c-0.041,0-0.079-0.001-0.116-0.001c-0.037-0.002-0.077-0.003-0.119-0.006c-0.014,0-0.047,0.003-0.099,0.004
	c-0.053,0.002-0.099,0.003-0.137,0.003v0.511l-0.058-0.003l-0.056-0.003c-0.009,0-0.017,0-0.024,0
	c-0.014,0.003-0.024,0.003-0.033,0.003l-0.057,0.003V14.334z"/>
<path fill="#FF0000" d="M14.888,15.061l-0.039,0.108l-0.042,0.118l-0.028,0.091l-0.034-0.002l-0.037-0.003l-0.037,0.003
	l-0.037,0.002l0.438-1.059c0.021,0.003,0.04,0.004,0.058,0.004c0.019,0,0.037-0.001,0.059-0.004l0.427,1.061l-0.067-0.003
	l-0.065-0.004l-0.065,0.004l-0.064,0.003c-0.02-0.062-0.032-0.106-0.042-0.135c-0.017-0.05-0.028-0.085-0.036-0.106
	c-0.009-0.027-0.019-0.053-0.029-0.078H14.888z M15.208,14.968l-0.136-0.353l-0.143,0.353H15.208z"/>
<path fill="#FF0000" d="M16.173,15.38l-0.057-0.003l-0.057-0.004l-0.057,0.004l-0.057,0.003v-0.938
	c-0.082,0-0.176,0.009-0.284,0.024c0.005-0.035,0.008-0.057,0.008-0.065c0-0.01-0.003-0.031-0.008-0.066h0.785l-0.004,0.024
	l-0.004,0.021l-0.001,0.018l0.001,0.02l0.004,0.021l0.004,0.023c-0.123-0.013-0.215-0.021-0.274-0.021V15.38z"/>
<path fill="#FF0000" d="M16.614,14.333l0.044,0.004l0.037,0.004l0.032,0.001l0.031-0.001l0.039-0.004l0.043-0.004v0.717
	c0.041-0.044,0.092-0.1,0.15-0.168c0.052-0.061,0.104-0.123,0.154-0.184c0.046-0.059,0.097-0.123,0.147-0.19
	c0.026-0.034,0.049-0.066,0.071-0.096c0.022-0.028,0.042-0.057,0.061-0.083h0.049h0.029c0.008,0,0.017,0,0.025,0
	c0.005,0,0.01,0,0.011,0v1.051l-0.056-0.003l-0.059-0.004l-0.056,0.004l-0.056,0.003v-0.724c-0.023,0.025-0.047,0.052-0.069,0.079
	c-0.023,0.027-0.046,0.053-0.067,0.079l-0.158,0.19l-0.161,0.203l-0.13,0.172l-0.047-0.002l-0.066,0.002V14.333z"/>
<path fill="#FF0000" d="M17.804,14.334h0.395c0.089,0,0.16,0.019,0.218,0.055s0.087,0.095,0.087,0.177
	c0,0.045-0.012,0.085-0.034,0.12c-0.023,0.034-0.055,0.063-0.093,0.084c-0.038,0.019-0.08,0.032-0.124,0.039v0.014
	c0.073,0.008,0.137,0.031,0.191,0.069c0.056,0.037,0.083,0.099,0.083,0.183c0,0.067-0.018,0.122-0.053,0.167s-0.08,0.078-0.138,0.1
	s-0.116,0.032-0.179,0.032h-0.354V14.334z M18.03,14.779h0.05c0.057,0,0.1-0.013,0.129-0.037c0.044-0.037,0.066-0.089,0.066-0.158
	c0-0.053-0.015-0.095-0.043-0.123s-0.069-0.042-0.121-0.042c-0.021,0-0.048,0.001-0.081,0.003V14.779z M18.03,15.284h0.079
	c0.028,0,0.057-0.009,0.085-0.024c0.028-0.017,0.051-0.04,0.069-0.069c0.018-0.03,0.026-0.066,0.026-0.107
	c0-0.145-0.072-0.217-0.22-0.217c-0.007,0-0.015,0-0.021,0c-0.008,0-0.013,0-0.02,0V15.284z"/>
<path fill="#FF0000" d="M18.883,15.061l-0.04,0.108l-0.041,0.118l-0.029,0.091l-0.034-0.002l-0.037-0.003l-0.036,0.003l-0.037,0.002
	l0.438-1.059c0.02,0.003,0.038,0.004,0.058,0.004c0.019,0,0.038-0.001,0.059-0.004l0.427,1.061l-0.067-0.003l-0.066-0.004
	l-0.064,0.004l-0.064,0.003c-0.02-0.062-0.033-0.106-0.043-0.135c-0.016-0.05-0.027-0.085-0.035-0.106
	c-0.01-0.027-0.02-0.053-0.03-0.078H18.883z M19.202,14.968l-0.136-0.353l-0.143,0.353H19.202z"/>
</svg>
